<?xml version="1.0" encoding="utf-8"?>
<!-- Generator: Adobe Illustrator 16.0.0, SVG Export Plug-In . SVG Version: 6.00 Build 0)  -->
<!DOCTYPE svg PUBLIC "-//W3C//DTD SVG 1.1//EN" "http://www.w3.org/Graphics/SVG/1.1/DTD/svg11.dtd">
<svg version="1.1" id="Ebene_1" xmlns="http://www.w3.org/2000/svg" xmlns:xlink="http://www.w3.org/1999/xlink" x="0px" y="0px"
	 width="839.479px" height="405.163px" viewBox="2.411 473.777 839.479 405.163"
	 enable-background="new 2.411 473.777 839.479 405.163" xml:space="preserve">
<g>
	<path fill="#FFFFFF" d="M842.731,473.269c-15.971-0.032-31.939-0.146-47.91-0.07c-12.373,0.06-11.209-1.912-11.207,11.139
		c0.002,10.989-1.045,9.567,9.648,9.65c11.345,0.087,9.738-0.971,9.788,9.937c0.071,15.412,0.077,30.823-0.022,46.233
		c-0.021,3.361,1.03,4.912,4.605,4.654c3.345-0.241,6.721-0.046,10.084-0.054c5.813-0.014,6.126-0.325,6.126-6.215
		c0.003-16.393,0.119-32.786-0.085-49.176c-0.055-4.283,1.373-5.67,5.581-5.461c4.444,0.221,8.927-0.259,13.392-0.433
		c0,42.937,0,85.873,0,128.81c-0.352-1.055-0.845-2.084-1.034-3.167c-4.025-23.022-25.362-41.657-49.594-41.614
		c-38.146,0.067-76.293-0.168-114.435,0.191c-6.41,0.061-13.272,1.396-19.11,3.981c-21.051,9.327-31.601,26.105-31.647,49.073
		c-0.131,65.071-0.075,130.144,0.022,195.216c0.006,4.435,0.7,8.923,1.556,13.291c4.201,21.447,25.787,39.914,49.384,39.683
		c38.002-0.374,76.011-0.074,114.016-0.114c18.827-0.021,33.161-8.609,42.892-24.268c3.744-6.025,5.364-13.372,7.952-20.116
		 M233.719,676.149c0-60.887-0.202-121.773,0.155-182.659c0.079-13.446-9.229-20.896-20.481-20.614
		c-18.929,0.473-37.885,0.463-56.813,0c-10.898-0.268-20.823,6.445-20.505,20.498c0.548,24.26,0.196,48.537,0.218,72.809
		c0.009,8.854-2.581,11.434-11.568,11.428c-23.147-0.016-46.296-0.125-69.443-0.03c-4.459,0.019-9.062,0.229-13.349,1.324
		c-23.406,5.978-39.568,27.244-39.498,52.602c0.175,63.551,0.123,127.104-0.022,190.654c-0.019,8.258,1.21,16.089,3.865,23.88
		c5.971,17.529,26.083,32.697,44.492,32.734c55.415,0.106,110.83,0.056,166.245,0.005c1.902-0.001,3.958-0.302,5.683-1.056
		c8.016-3.507,11.089-9.902,11.075-18.495C233.671,798.201,233.719,737.176,233.719,676.149z M477.307,878.759
		c24.551,0,49.102,0,73.652,0c0.421-0.001,0.852,0.055,1.262-0.017c5.086-0.878,10.413-1.087,15.211-2.786
		c21.818-7.731,35.06-26.469,35.256-49.723c0.249-29.458,0.399-58.921,0.262-88.381c-0.138-29.701-23.104-52.338-52.728-52.389
		c-12.064-0.021-24.13,0.035-36.193,0.05c-11.504,0.014-23.01,0.162-34.512-0.021c-8.909-0.142-14.191-8.6-10.444-16.609
		c2.432-5.196,7.001-6.735,12.499-6.724c30.582,0.069,61.165,0.055,91.746,0.013c10.886-0.017,18.441-6.691,18.711-17.363
		c0.418-16.545,0.506-33.109,0.196-49.655c-0.203-10.863-7.587-17.645-18.416-17.656c-46.155-0.051-92.312,0.151-138.465-0.063
		c-27.264-0.128-51.603,21.921-51.739,51.988c-0.136,29.739-0.105,59.482,0.017,89.224c0.037,8.944,2.047,17.525,6.672,25.314
		c10.381,17.484,25.767,26.406,46.107,26.483c21.884,0.084,43.771-0.046,65.655,0.002c2.492,0.006,5.085,0.218,7.456,0.922
		c6.518,1.939,9.562,9.592,6.578,15.681c-2.753,5.615-7.61,6.954-13.277,6.953c-33.39-0.016-66.778,0.106-100.167-0.06
		c-11.842-0.059-18.941,7.716-19.184,17.468c-0.413,16.543-0.349,33.108-0.042,49.656c0.192,10.451,8.13,17.678,18.55,17.688
		C427.085,878.777,452.195,878.762,477.307,878.759z M258.625,728.059c-0.008,0-0.016,0-0.022,0
		c0,37.454-0.001,74.908,0.001,112.362c0,7.153-0.117,14.313,0.064,21.462c0.245,9.644,7.697,16.894,17.268,16.912
		c21.182,0.043,42.364-0.001,63.546,0.031c6.016,0.01,10.918-2.648,13.57-7.66c1.989-3.76,3.023-8.477,3.033-12.771
		c0.168-86.831,0.126-173.663,0.125-260.495c0-0.842,0.005-1.685-0.027-2.525c-0.415-10.663-7.188-17.567-17.873-17.646
		c-20.479-0.152-40.961-0.111-61.44,0.02c-2.722,0.019-5.675,0.517-8.112,1.662c-7.214,3.395-10.181,9.435-10.167,17.349
		C258.664,640.524,258.625,684.292,258.625,728.059z M485.596,531.678c-0.445-0.065-0.891-0.131-1.333-0.196
		c-2.271-6.597-4.538-13.195-6.81-19.792c-4.008-11.641-8.057-23.268-11.993-34.933c-0.845-2.498-2.247-3.548-4.925-3.516
		c-7.574,0.095-15.154,0.105-22.726-0.104c-3.616-0.1-4.627,1.487-4.519,4.801c0.168,5.044,0.054,10.099,0.053,15.15
		c-0.002,18.938,0.063,37.879-0.07,56.817c-0.026,3.644,1.188,5.113,4.861,4.892c3.494-0.21,7.012-0.023,10.52-0.048
		c5.26-0.038,5.48-0.25,5.48-5.432c0.002-15.011-0.031-30.021,0-45.034c0.003-1.688,0.326-3.376,0.5-5.064
		c1.222,0.657,1.634,1.33,1.883,2.058c5.621,16.416,11.257,32.827,16.799,49.271c0.912,2.707,2.246,4.338,5.362,4.239
		c4.483-0.141,8.977-0.071,13.466-0.034c2.456,0.02,3.709-1.075,4.501-3.47c5.491-16.605,11.117-33.169,16.739-49.731
		c0.22-0.646,0.841-1.154,1.978-2.655c0.278,2.668,0.586,4.261,0.589,5.854c0.031,15.011,0.076,30.021-0.041,45.033
		c-0.025,3.564,1.193,5.187,4.889,5.009c3.778-0.183,7.581-0.186,11.358,0.004c3.241,0.163,4.54-1.058,4.531-4.347
		c-0.067-24.27-0.062-48.541-0.003-72.812c0.008-3.128-0.976-4.6-4.375-4.506c-7.431,0.206-14.87,0.169-22.305,0.12
		c-2.893-0.021-4.538,0.939-5.521,3.927c-4.806,14.622-9.831,29.173-14.835,43.729C488.406,524.538,486.952,528.092,485.596,531.678
		z M420.987,512.572c-0.555-8.091-1.192-17.735-1.887-27.376c-0.387-5.359-3.331-8.815-8.332-10.463
		c-17.279-5.689-34.714-5.263-52.164-0.956c-6.657,1.644-11.033,5.875-11.109,12.994c-0.194,18.078-0.223,36.162,0.052,54.238
		c0.093,6.155,3.536,10.511,9.722,12.224c16.296,4.512,32.749,4.01,49.169,1.053c8.254-1.485,13.013-6.377,13.157-15.345
		C419.727,530.681,420.441,522.43,420.987,512.572z M704.308,513.687c0.653,9.438,1.335,18.939,1.962,28.444
		c0.384,5.799,3.662,9.333,8.954,10.896c16.382,4.842,32.995,4.196,49.559,1.28c5.793-1.021,11.36-3.615,12.52-10.251
		c0.958-5.485,1.021-11.153,1.06-16.743c0.007-0.902-2.116-2.501-3.354-2.604c-4.039-0.34-8.128-0.013-12.188-0.181
		c-3.786-0.156-5.875,0.988-5.544,5.236c0.327,4.21-1.95,6.842-6.063,7.059c-6.117,0.321-12.268,0.307-18.392,0.09
		c-4.431-0.156-6.433-3.178-6.479-7.307c-0.122-10.51-0.249-21.028,0.025-31.532c0.144-5.413,2.376-7.456,7.929-7.83
		c4.884-0.329,9.818-0.344,14.706-0.051c6.199,0.372,8.105,2.375,8.294,8.67c0.094,3.155,1.408,4.245,4.316,4.21
		c4.347-0.052,8.695-0.071,13.041,0.015c2.838,0.057,4.144-1.069,3.931-4.011c-0.324-4.475-0.299-8.981-0.783-13.437
		c-0.557-5.097-3.076-9.051-8.149-10.745c-17.679-5.901-35.505-5.571-53.346-0.839c-6.576,1.745-9.996,6.052-10.267,13.082
		C705.7,495.954,704.911,504.753,704.308,513.687z M282.152,513.769c-0.014,0-0.028,0-0.042,0c0-5.048-0.115-10.099,0.031-15.144
		c0.163-5.609,2.228-7.92,7.866-8.377c4.46-0.36,8.971-0.33,13.447-0.164c7.566,0.277,9.3,1.947,9.838,9.443
		c0.178,2.481,1.118,3.552,3.57,3.528c4.769-0.047,9.536-0.035,14.305,0.005c2.53,0.021,3.518-1.207,3.36-3.661
		c-0.276-4.336-0.295-8.698-0.752-13.015c-0.627-5.918-3.49-10.25-9.513-12.016c-17.512-5.13-35.045-5.114-52.565-0.136
		c-5.25,1.492-8.881,4.694-9.509,10.483c-2.112,19.444-2.135,38.891,0.075,58.329c0.612,5.395,3.95,8.573,8.905,10.018
		c16.396,4.774,32.999,4.182,49.556,1.203c6.325-1.138,11.831-4.179,12.735-11.532c0.614-4.996,0.919-10.058,0.868-15.086
		c-0.011-1.033-2.142-2.803-3.422-2.926c-4.029-0.387-8.13,0.021-12.185-0.21c-3.864-0.223-5.769,0.987-5.493,5.176
		c0.271,4.136-1.912,6.918-6.05,7.103c-6.39,0.286-12.813,0.235-19.201-0.08c-4.06-0.202-5.731-3.17-5.8-6.961
		C282.08,524.427,282.152,519.096,282.152,513.769z M553.84,514.111c0,11.917,0.056,23.832-0.036,35.748
		c-0.026,3.306,1.08,4.988,4.611,4.861c4.062-0.146,8.135-0.143,12.193,0.001c2.993,0.104,3.992-1.34,3.94-4.072
		c-0.059-3.082-0.029-6.167-0.01-9.251c0.035-5.142,0.255-5.139,5.548-5.417c10.048-0.527,20.191-0.614,30.095-2.169
		c9.589-1.506,12.998-5.759,13.118-13.684c0.152-10.064-0.06-20.136-0.058-30.204c0.002-9.553-5.612-14.182-14.886-14.854
		c-16.32-1.184-32.714-1.396-49.08-1.892c-4.988-0.152-5.423,0.443-5.432,5.606C553.826,490.561,553.84,502.337,553.84,514.111z
		 M691.667,554.757c1.82,0,3.645,0.023,5.467-0.004c4.688-0.076,4.932-0.331,3.633-4.811c-7.094-24.448-14.266-48.875-21.293-73.342
		c-0.784-2.728-2.332-3.514-4.871-3.497c-7.01,0.045-14.02,0.007-21.029,0.01c-6.011,0.004-6.237,0.393-7.905,6.287
		c-3.81,13.458-7.813,26.86-11.743,40.283c-2.988,10.201-5.994,20.396-8.979,30.601c-0.839,2.87-0.265,4.628,3.261,4.504
		c4.061-0.143,8.132-0.111,12.193-0.008c2.987,0.078,4.698-1.072,5.331-4.111c0.627-3.007,1.648-5.928,2.438-8.9
		c0.701-2.657,2.212-3.977,5.114-3.903c5.324,0.136,10.653,0.038,15.98,0.037c7.479-0.002,7.479-0.002,9.62,7.234
		C681.725,554.759,681.725,554.759,691.667,554.757z"/>
	<path fill="#FFFFFF" d="M842.731,834.439c-2.588,6.744-4.208,14.091-7.952,20.116c-9.729,15.657-24.063,24.247-42.892,24.268
		c-38.005,0.04-76.015-0.26-114.017,0.114c-23.596,0.231-45.182-18.234-49.383-39.683c-0.854-4.368-1.55-8.856-1.556-13.291
		c-0.1-65.072-0.153-130.145-0.022-195.215c0.047-22.969,10.598-39.748,31.647-49.074c5.838-2.586,12.7-3.922,19.109-3.981
		c38.143-0.358,76.288-0.124,114.436-0.191c24.229-0.042,45.566,18.591,49.594,41.614c0.189,1.083,0.684,2.112,1.034,3.167
		c0,25.257,0,50.514,0,75.771c-3.283,8.764-9.287,13.727-18.952,13.71c-18.232-0.032-36.466,0.079-54.697-0.055
		c-11.488-0.085-18.541-7.277-18.599-18.76c-0.053-10.378,0.236-20.76,0.058-31.135c-0.061-3.58-0.737-7.24-1.728-10.695
		c-1.722-6.007-6.946-9.735-13.124-9.95c-6.964-0.242-12.323,2.859-14.43,9.216c-1.25,3.771-1.959,7.903-1.972,11.877
		c-0.134,44.88-0.089,89.761-0.067,134.642c0.001,2.38,0.006,4.792,0.37,7.134c1.943,12.465,14.789,18.479,24.204,11.271
		c5.219-3.995,6.717-9.87,6.771-16.078c0.095-11.078-0.152-22.159-0.075-33.239c0.076-10.934,6.747-18.08,17.698-18.243
		c18.929-0.28,37.866-0.115,56.799-0.063c6.678,0.018,11.892,2.899,15.383,8.641c0.935,1.535,1.582,3.245,2.361,4.873
		C842.731,785.609,842.731,810.024,842.731,834.439z"/>
	<path fill="#FFFFFF" d="M842.731,761.194c-0.779-1.628-1.428-3.338-2.361-4.873c-3.49-5.741-8.705-8.623-15.383-8.641
		c-18.933-0.052-37.87-0.217-56.799,0.063c-10.951,0.163-17.622,7.311-17.698,18.243c-0.077,11.08,0.17,22.161,0.075,33.239
		c-0.054,6.208-1.552,12.083-6.77,16.078c-9.415,7.208-22.262,1.193-24.204-11.271c-0.365-2.342-0.37-4.754-0.371-7.134
		c-0.021-44.881-0.065-89.762,0.067-134.642c0.013-3.974,0.722-8.106,1.972-11.877c2.105-6.355,7.466-9.458,14.43-9.217
		c6.178,0.216,11.403,3.944,13.124,9.951c0.989,3.455,1.667,7.115,1.729,10.695c0.179,10.375-0.11,20.757-0.059,31.135
		c0.059,11.481,7.109,18.674,18.6,18.759c18.23,0.135,36.465,0.022,54.696,0.056c9.665,0.017,15.669-4.946,18.952-13.71
		C842.731,719.101,842.731,740.147,842.731,761.194z"/>
	<path fill="#FFFFFF" d="M842.731,493.474c-4.465,0.174-8.946,0.653-13.392,0.433c-4.208-0.209-5.636,1.178-5.581,5.461
		c0.204,16.391,0.088,32.783,0.085,49.176c0,5.89-0.313,6.201-6.126,6.215c-3.363,0.008-6.739-0.188-10.084,0.054
		c-3.575,0.257-4.626-1.293-4.605-4.654c0.101-15.409,0.094-30.821,0.022-46.233c-0.05-10.907,1.557-9.85-9.788-9.937
		c-10.693-0.083-9.646,1.339-9.648-9.65c-0.002-13.05-1.166-11.08,11.207-11.139c15.97-0.075,31.939,0.038,47.91,0.07
		C842.731,480.004,842.731,486.739,842.731,493.474z"/>
	<path fill="#FFFFFF" d="M233.719,676.149c0,61.025-0.047,122.052,0.053,183.079c0.014,8.593-3.06,14.988-11.075,18.495
		c-1.725,0.754-3.779,1.055-5.683,1.056c-55.415,0.051-110.83,0.103-166.245-0.005c-18.409-0.037-38.521-15.205-44.492-32.734
		c-2.654-7.791-3.883-15.621-3.865-23.88c0.146-63.551,0.198-127.104,0.022-190.654c-0.07-25.356,16.092-46.624,39.498-52.602
		c4.288-1.095,8.89-1.306,13.349-1.324c23.147-0.095,46.295,0.016,69.443,0.03c8.988,0.006,11.576-2.574,11.568-11.428
		c-0.021-24.271,0.331-48.549-0.218-72.808c-0.317-14.054,9.606-20.767,20.505-20.499c18.928,0.463,37.884,0.472,56.813,0
		c11.252-0.281,20.562,7.167,20.481,20.614C233.517,554.376,233.719,615.263,233.719,676.149z M97.15,729.3
		c0,22.854-0.115,45.71,0.04,68.563c0.105,15.711,15.562,25.179,28.88,17.771c7.35-4.087,10.137-10.874,10.139-18.999
		c0.012-32.67,0.01-65.34,0.008-98.01c0-12.479,0.132-24.961-0.063-37.438c-0.185-11.866-9.008-20.393-20.317-20.023
		c-10.543,0.345-18.62,9.032-18.663,20.411C97.087,684.15,97.148,706.725,97.15,729.3z"/>
	<path fill="#FFFFFF" d="M477.307,878.76c-25.111,0.003-50.223,0.019-75.335-0.006c-10.42-0.011-18.357-7.236-18.55-17.688
		c-0.308-16.548-0.372-33.113,0.042-49.656c0.243-9.752,7.342-17.525,19.184-17.468c33.388,0.166,66.777,0.044,100.167,0.06
		c5.667,0,10.524-1.339,13.277-6.953c2.982-6.09-0.062-13.74-6.578-15.681c-2.371-0.705-4.964-0.916-7.456-0.922
		c-21.885-0.048-43.771,0.082-65.655-0.002c-20.342-0.077-35.727-8.999-46.107-26.483c-4.625-7.789-6.635-16.37-6.672-25.314
		c-0.122-29.74-0.152-59.483-0.017-89.224c0.137-30.066,24.476-52.116,51.739-51.988c46.154,0.215,92.31,0.013,138.465,0.063
		c10.829,0.013,18.213,6.792,18.416,17.657c0.31,16.546,0.222,33.11-0.196,49.655c-0.27,10.672-7.825,17.348-18.711,17.363
		c-30.581,0.042-61.164,0.058-91.746-0.013c-5.498-0.013-10.067,1.526-12.499,6.724c-3.747,8.011,1.535,16.469,10.444,16.609
		c11.502,0.184,23.008,0.034,34.512,0.021c12.063-0.015,24.129-0.07,36.193-0.05c29.623,0.051,52.59,22.688,52.728,52.389
		c0.139,29.46-0.013,58.923-0.262,88.381c-0.196,23.254-13.438,41.99-35.256,49.723c-4.798,1.699-10.125,1.908-15.211,2.786
		c-0.41,0.07-0.841,0.016-1.262,0.017C526.408,878.759,501.857,878.759,477.307,878.76z"/>
	<path fill="#FFFFFF" d="M258.625,728.059c0-43.768,0.04-87.534-0.036-131.301c-0.014-7.914,2.953-13.954,10.167-17.349
		c2.438-1.146,5.391-1.644,8.112-1.661c20.479-0.132,40.961-0.173,61.44-0.021c10.685,0.079,17.458,6.983,17.873,17.647
		c0.033,0.841,0.026,1.684,0.026,2.524c0.002,86.832,0.043,173.664-0.125,260.495c-0.008,4.294-1.042,9.011-3.032,12.771
		c-2.652,5.011-7.555,7.669-13.57,7.659c-21.182-0.032-42.364,0.012-63.546-0.031c-9.569-0.02-17.021-7.27-17.268-16.912
		c-0.182-7.149-0.063-14.309-0.064-21.462c-0.003-37.454-0.001-74.908-0.001-112.362
		C258.609,728.059,258.617,728.059,258.625,728.059z"/>
	<path fill="#FFFFFF" d="M485.596,531.678c1.355-3.586,2.811-7.141,4.056-10.766c5.004-14.557,10.029-29.107,14.835-43.729
		c0.982-2.987,2.629-3.946,5.521-3.927c7.435,0.049,14.874,0.086,22.305-0.12c3.399-0.095,4.383,1.378,4.375,4.506
		c-0.059,24.271-0.064,48.542,0.003,72.812c0.009,3.289-1.29,4.51-4.531,4.347c-3.777-0.189-7.58-0.187-11.358-0.004
		c-3.694,0.178-4.914-1.444-4.889-5.009c0.117-15.011,0.072-30.022,0.041-45.033c-0.003-1.594-0.311-3.187-0.589-5.854
		c-1.137,1.501-1.758,2.01-1.978,2.655c-5.622,16.563-11.248,33.125-16.739,49.731c-0.792,2.395-2.045,3.489-4.501,3.47
		c-4.489-0.038-8.981-0.106-13.466,0.034c-3.116,0.1-4.45-1.532-5.362-4.239c-5.542-16.442-11.178-32.854-16.799-49.271
		c-0.249-0.728-0.661-1.398-1.883-2.058c-0.174,1.688-0.497,3.376-0.5,5.064c-0.031,15.012,0.002,30.023,0,45.034
		c0,5.183-0.222,5.395-5.48,5.432c-3.508,0.024-7.024-0.163-10.52,0.048c-3.673,0.222-4.889-1.248-4.861-4.892
		c0.134-18.938,0.068-37.879,0.07-56.817c0.001-5.051,0.115-10.105-0.053-15.15c-0.108-3.313,0.901-4.9,4.519-4.801
		c7.57,0.209,15.149,0.197,22.726,0.104c2.678-0.032,4.08,1.018,4.925,3.516c3.938,11.665,7.985,23.292,11.993,34.933
		c2.271,6.597,4.539,13.195,6.81,19.792C484.706,531.548,485.15,531.613,485.596,531.678z"/>
	<path fill="#FFFFFF" d="M420.987,512.572c-0.546,9.858-1.26,18.109-1.392,26.369c-0.145,8.967-4.902,13.858-13.157,15.345
		c-16.421,2.957-32.874,3.459-49.169-1.053c-6.185-1.712-9.629-6.066-9.722-12.224c-0.274-18.076-0.247-36.16-0.052-54.238
		c0.077-7.119,4.453-11.352,11.109-12.994c17.45-4.307,34.884-4.733,52.164,0.956c5.001,1.647,7.945,5.104,8.332,10.463
		C419.795,494.837,420.432,504.481,420.987,512.572z M367.994,513.855c0.023,0,0.046,0,0.07,0c0,5.601-0.039,11.201,0.015,16.802
		c0.03,3.222,1.635,5.635,4.869,5.836c6.513,0.406,13.06,0.573,19.58,0.4c4.636-0.123,6.542-3.426,6.584-7.678
		c0.103-10.361,0.08-20.725-0.008-31.085c-0.037-4.372-2.324-7.407-6.722-7.675c-5.985-0.364-12.033-0.389-18.009,0.061
		c-4.053,0.304-6.503,2.875-6.405,7.375C368.082,503.21,367.994,508.534,367.994,513.855z"/>
	<path fill="#FFFFFF" d="M704.308,513.687c0.604-8.935,1.393-17.732,1.729-26.548c0.271-7.029,3.689-11.337,10.267-13.082
		c17.841-4.732,35.667-5.063,53.346,0.839c5.073,1.693,7.594,5.647,8.149,10.745c0.484,4.455,0.459,8.961,0.782,13.437
		c0.214,2.941-1.092,4.066-3.93,4.011c-4.346-0.086-8.694-0.066-13.041-0.015c-2.908,0.035-4.224-1.055-4.317-4.21
		c-0.188-6.294-2.094-8.298-8.294-8.67c-4.887-0.292-9.821-0.279-14.706,0.051c-5.552,0.375-7.784,2.417-7.928,7.83
		c-0.274,10.504-0.147,21.022-0.025,31.532c0.048,4.129,2.05,7.149,6.479,7.306c6.124,0.217,12.273,0.232,18.392-0.089
		c4.111-0.216,6.39-2.848,6.063-7.059c-0.331-4.248,1.758-5.394,5.544-5.236c4.062,0.168,8.149-0.159,12.188,0.181
		c1.237,0.104,3.36,1.703,3.354,2.604c-0.039,5.59-0.102,11.258-1.06,16.743c-1.158,6.636-6.727,9.231-12.52,10.251
		c-16.563,2.916-33.177,3.562-49.559-1.28c-5.292-1.563-8.57-5.097-8.954-10.896C705.643,532.626,704.962,523.124,704.308,513.687z"
		/>
	<path fill="#FFFFFF" d="M282.152,513.769c0,5.328-0.072,10.657,0.023,15.983c0.069,3.791,1.741,6.759,5.801,6.96
		c6.389,0.315,12.813,0.366,19.201,0.081c4.139-0.186,6.321-2.968,6.05-7.104c-0.275-4.188,1.629-5.398,5.493-5.176
		c4.054,0.231,8.153-0.178,12.185,0.21c1.28,0.123,3.411,1.893,3.422,2.926c0.051,5.028-0.254,10.09-0.869,15.086
		c-0.903,7.354-6.41,10.395-12.734,11.532c-16.558,2.979-33.16,3.572-49.556-1.203c-4.956-1.444-8.293-4.623-8.905-10.018
		c-2.21-19.438-2.188-38.884-0.075-58.329c0.628-5.789,4.259-8.991,9.509-10.483c17.52-4.979,35.055-4.994,52.565,0.136
		c6.021,1.765,8.886,6.098,9.513,12.016c0.457,4.315,0.475,8.678,0.752,13.015c0.157,2.455-0.83,3.684-3.361,3.661
		c-4.768-0.04-9.535-0.052-14.304-0.005c-2.453,0.023-3.394-1.047-3.571-3.528c-0.537-7.497-2.271-9.167-9.837-9.444
		c-4.477-0.164-8.988-0.195-13.447,0.165c-5.64,0.457-7.704,2.768-7.866,8.378c-0.146,5.043-0.031,10.095-0.031,15.143
		C282.125,513.769,282.138,513.769,282.152,513.769z"/>
	<path fill="#FFFFFF" d="M553.84,514.111c0-11.774-0.014-23.551,0.007-35.326c0.009-5.163,0.442-5.759,5.432-5.606
		c16.366,0.497,32.76,0.708,49.08,1.892c9.272,0.673,14.888,5.304,14.886,14.854c-0.002,10.067,0.21,20.139,0.058,30.204
		c-0.12,7.925-3.529,12.178-13.118,13.684c-9.902,1.555-20.047,1.642-30.095,2.169c-5.293,0.278-5.513,0.274-5.547,5.417
		c-0.021,3.084-0.05,6.169,0.009,9.251c0.052,2.732-0.947,4.177-3.94,4.072c-4.06-0.144-8.133-0.146-12.192-0.001
		c-3.532,0.127-4.64-1.555-4.612-4.861C553.895,537.943,553.84,526.028,553.84,514.111z M586.432,517.282
		c16.119-0.117,17.956-1.958,16.643-16.693c-0.511-5.736-2.551-7.988-8.408-8.358c-5.435-0.343-10.897-0.178-16.349-0.286
		c-2.616-0.052-3.825,1.078-3.793,3.76c0.071,6.012,0.07,12.024-0.009,18.035c-0.033,2.518,1.127,3.57,3.528,3.557
		C580.841,517.278,583.636,517.292,586.432,517.282z"/>
	<path fill="#FFFFFF" d="M691.667,554.758c-9.941,0.001-9.941,0.001-12.785-9.623c-2.141-7.236-2.141-7.236-9.62-7.234
		c-5.327,0.001-10.656,0.099-15.98-0.037c-2.902-0.073-4.413,1.246-5.114,3.903c-0.788,2.974-1.811,5.895-2.438,8.9
		c-0.633,3.041-2.344,4.189-5.331,4.111c-4.063-0.104-8.134-0.135-12.194,0.008c-3.523,0.124-4.099-1.634-3.26-4.504
		c2.985-10.203,5.991-20.398,8.979-30.601c3.932-13.423,7.935-26.825,11.743-40.283c1.668-5.896,1.896-6.283,7.905-6.287
		c7.011-0.003,14.021,0.036,21.029-0.01c2.539-0.017,4.087,0.77,4.871,3.497c7.026,24.468,14.199,48.894,21.293,73.342
		c1.299,4.479,1.056,4.733-3.633,4.811C695.311,554.78,693.487,554.757,691.667,554.758z M663.83,493.823
		c-1.004,1.088-1.672,1.492-1.844,2.049c-2.637,8.528-5.283,17.056-7.655,25.657c-0.198,0.719,1.494,2.778,2.409,2.844
		c4.172,0.307,8.396,0.312,12.563-0.035c0.892-0.074,2.512-2.297,2.291-3.136C669.261,512.31,666.626,503.498,663.83,493.823z"/>
	<path fill="#FFFFFF" d="M97.149,729.3c-0.001-22.574-0.063-45.148,0.024-67.724c0.043-11.379,8.12-20.066,18.663-20.411
		c11.31-0.368,20.134,8.157,20.317,20.023c0.194,12.477,0.062,24.958,0.063,37.438c0.002,32.67,0.004,65.34-0.008,98.01
		c-0.002,8.125-2.789,14.912-10.139,18.999c-13.318,7.407-28.774-2.061-28.88-17.771C97.036,775.01,97.15,752.153,97.149,729.3z"/>
	<path fill="#FFFFFF" d="M367.994,513.855c0-5.321,0.088-10.646-0.026-15.963c-0.098-4.5,2.354-7.071,6.405-7.375
		c5.976-0.449,12.023-0.425,18.009-0.062c4.396,0.269,6.685,3.304,6.722,7.676c0.088,10.36,0.11,20.724,0.008,31.085
		c-0.042,4.252-1.948,7.556-6.584,7.678c-6.521,0.173-13.068,0.006-19.58-0.4c-3.233-0.202-4.838-2.614-4.869-5.836
		c-0.054-5.601-0.015-11.201-0.015-16.802C368.04,513.855,368.017,513.855,367.994,513.855z"/>
	<path fill="#FFFFFF" d="M586.432,517.287c-2.796,0.005-5.592-0.008-8.388,0.009c-2.401,0.015-3.563-1.039-3.528-3.557
		c0.079-6.011,0.08-12.023,0.009-18.035c-0.032-2.683,1.177-3.813,3.793-3.76c5.45,0.108,10.914-0.057,16.349,0.286
		c5.857,0.37,7.897,2.622,8.408,8.358C604.388,515.323,602.552,517.165,586.432,517.287z"/>
	<path fill="#FFFFFF" d="M663.83,493.823c2.796,9.674,5.432,18.487,7.765,27.379c0.221,0.838-1.399,3.062-2.291,3.136
		c-4.166,0.347-8.392,0.342-12.563,0.036c-0.915-0.066-2.607-2.125-2.409-2.845c2.372-8.603,5.02-17.129,7.655-25.657
		C662.158,495.315,662.826,494.912,663.83,493.823z"/>
</g>
</svg>
