<?xml version="1.0" encoding="utf-8"?>
<!-- Generator: Adobe Illustrator 16.0.0, SVG Export Plug-In . SVG Version: 6.00 Build 0)  -->
<!DOCTYPE svg PUBLIC "-//W3C//DTD SVG 1.1//EN" "http://www.w3.org/Graphics/SVG/1.1/DTD/svg11.dtd">
<svg version="1.1" id="Ebene_1" xmlns="http://www.w3.org/2000/svg" xmlns:xlink="http://www.w3.org/1999/xlink" x="0px" y="0px"
	 width="829.81px" height="322.613px" viewBox="9.899 519.073 829.81 322.613"
	 enable-background="new 9.899 519.073 829.81 322.613" xml:space="preserve">
<g>
	<path fill="#FFFFFF" d="M839.706,741.472c-3.384-6.103-8.657-7.249-15.317-7.136c-22.287,0.378-44.584,0.15-66.878,0.128
		c-1.742-0.002-3.483-0.226-6.048-0.401c1.271-1.852,2.039-3.092,2.925-4.239c24.496-31.753,49.001-63.5,73.517-95.237
		c4.766-6.17,5.342-13.134,2.718-20.03c-3.865-10.17-12.603-14.443-22.649-14.607c-27.548-0.448-55.109-0.218-82.663-0.03
		c-2.021,0.014-4.529,1.359-5.954,2.889c-4.264,4.575-5.407,10.146-3.612,16.2c1.865,6.286,5.247,8.792,11.76,8.793
		c21.187,0.005,42.373-0.013,63.559,0.026c1.661,0.003,3.321,0.364,5.815,0.657c-6.321,8.015-12.024,15.269-17.753,22.502
		c-18.718,23.634-37.496,47.218-56.123,70.922c-4.345,5.527-6.812,11.983-7.454,19.059c-0.999,10.976,7.741,20.672,18.668,20.675
		c30.739,0.007,61.481-0.135,92.22,0.124c5.759,0.049,10.301-0.965,13.274-6.166 M173.448,751.142
		c0-23.674-0.044-47.35,0.015-71.022c0.04-16.076-4.287-30.791-13.081-44.266c-18.847-28.876-50.718-41.545-86.758-35.034
		c-36.715,6.635-63.001,42.501-63.708,78.488c-0.327,16.668,4.106,32.509,12.024,47.311c9.793,18.309,24.337,30.438,44.754,35.236
		c14.062,3.307,28.127,4.077,42.29,0.71c6.887-1.637,13.845-3.271,19.282-8.083c1.736-1.538,3.201-4.261,3.358-6.54
		c0.447-6.477,0.201-13.004,0.11-19.51c-0.016-1.137-0.604-2.268-0.929-3.4c-1.065,0.451-2.265,0.719-3.175,1.381
		c-9.013,6.567-18.835,11.172-30.122,11.645c-18.266,0.766-34.473-4.28-45.728-19.445c-11.428-15.397-14.09-32.825-10.051-51.611
		c5.469-25.439,31.312-48.199,62.875-40.053c22.769,5.877,38.923,26.408,38.782,49.834c-0.309,50.669-0.007,101.342-0.213,152.014
		c-0.021,5.413,1.918,9.032,6.523,10.75c3.752,1.398,8.023,2.364,11.966,2.096c8.146-0.557,11.784-5.124,11.784-13.244
		C173.449,802.644,173.449,776.893,173.448,751.142z M373.291,616.029c0,27.967-0.016,55.936,0.029,83.901
		c0.003,2.189,0.078,4.481,0.702,6.552c3.475,11.538,9.292,21.851,17.143,30.958c10.101,11.717,22.4,20.224,37.623,23.673
		c13.248,3.001,26.688,5.297,40.25,1.938c7.864-1.948,16.146-3.298,23.302-6.824c21.397-10.548,34.904-27.938,40.774-51.124
		c4.107-16.226,4.961-32.581,0.491-48.824c-3.124-11.354-9.477-21.058-17-30.076c-9.1-10.907-20.32-18.479-33.67-23.261
		c-12.077-4.325-24.521-3.984-36.949-3.489c-10.315,0.41-20.159,3.229-29.518,7.659c-2.636,1.248-4.021,2.991-3.936,6.115
		c0.179,6.503-0.007,13.015,0.095,19.52c0.019,1.264,0.654,2.517,1.007,3.772c1.221-0.498,2.435-1.021,3.666-1.492
		c7.683-2.951,15.256-6.254,23.088-8.738c8.233-2.611,16.705-1.655,25.048,0.064c12.365,2.549,23.512,7.377,31.321,17.825
		c13.141,17.581,15.688,44.649,3.441,65.85c-15.244,26.387-40.972,33.196-67.04,23.678c-17.615-6.433-31.091-27.88-31.113-47.73
		c-0.058-51.228-0.021-102.455-0.022-153.682c0-6.192-2.208-9.003-7.75-11.802c-6.376-3.22-11.467-0.354-16.646,2.629
		c-3.085,1.778-4.448,4.322-4.426,8.177C373.371,559.54,373.294,587.785,373.291,616.029z M276.291,599.126
		c-12.462-0.455-24.955,1.729-36.768,6.923c-41.295,18.151-60.832,67.187-43.558,108.941c12.377,29.92,42.083,49.896,74.447,49.78
		c5.772-0.021,11.541-1.033,17.311-1.594c10.177-0.989,19.937-3.693,28.686-8.904c36.336-21.639,49.431-62.125,36.76-101.42
		C343.298,622.242,309.487,596.746,276.291,599.126z M556.332,660.463c0,14.538-0.174,29.078,0.041,43.612
		c0.314,21.214,9.778,37.663,27.107,49.54c9.456,6.482,20.317,8.813,31.651,10.042c16.669,1.809,32.658,0.26,47.303-8.242
		c18.828-10.933,30.504-27.132,30.976-49.276c0.675-31.692,0.128-63.41,0.225-95.116c0.015-4.759-1.867-8.398-6.121-9.81
		c-3.785-1.257-8.11-1.935-12.039-1.482c-7.209,0.827-11.573,6.523-11.573,13.633c-0.001,24.922,0.088,49.847-0.062,74.768
		c-0.037,6.056-0.992,12.1-1.28,18.159c-0.779,16.426-17.187,29.449-30.991,30.06c-4.925,0.216-9.889,0.016-14.813-0.301
		c-8.069-0.521-14.748-3.875-20.311-9.882c-8.415-9.09-10.49-20.242-10.579-31.894c-0.211-27.552-0.13-55.104-0.008-82.658
		c0.022-4.844-1.734-8.232-5.946-10.479c-5.006-2.67-10.086-2.614-15.14-0.297c-5.556,2.548-8.776,6.247-8.58,13.105
		C556.634,629.438,556.329,644.955,556.332,660.463z"/>
	<path fill="#FFFFFF" d="M839.706,755.597c-2.974,5.201-7.516,6.215-13.273,6.166c-30.737-0.259-61.479-0.117-92.22-0.124
		c-10.928-0.003-19.667-9.699-18.668-20.675c0.644-7.074,3.109-13.53,7.454-19.059c18.627-23.704,37.405-47.288,56.122-70.922
		c5.729-7.232,11.433-14.487,17.753-22.502c-2.493-0.293-4.153-0.654-5.814-0.657c-21.186-0.039-42.372-0.021-63.559-0.026
		c-6.513-0.001-9.895-2.506-11.76-8.793c-1.795-6.055-0.65-11.625,3.612-16.2c1.425-1.528,3.933-2.875,5.954-2.889
		c27.554-0.188,55.115-0.418,82.663,0.03c10.048,0.164,18.784,4.438,22.649,14.607c2.624,6.896,2.048,13.86-2.718,20.03
		c-24.516,31.737-49.021,63.484-73.517,95.237c-0.887,1.147-1.652,2.389-2.925,4.239c2.563,0.177,4.306,0.399,6.048,0.401
		c22.294,0.022,44.591,0.25,66.878-0.128c6.66-0.113,11.935,1.033,15.317,7.136C839.706,746.181,839.706,750.889,839.706,755.597z"
		/>
	<path fill="#FFFFFF" d="M173.448,751.142c0,25.751,0,51.502,0.001,77.253c0,8.12-3.638,12.688-11.784,13.244
		c-3.942,0.27-8.213-0.696-11.966-2.095c-4.605-1.719-6.545-5.337-6.522-10.751c0.205-50.672-0.097-101.345,0.212-152.014
		c0.142-23.426-16.014-43.957-38.782-49.834C73.043,618.8,47.2,641.558,41.731,667c-4.039,18.785-1.377,36.213,10.051,51.61
		c11.254,15.165,27.461,20.211,45.729,19.445c11.286-0.472,21.108-5.076,30.121-11.645c0.91-0.662,2.109-0.93,3.175-1.381
		c0.323,1.135,0.913,2.265,0.929,3.4c0.091,6.506,0.337,13.033-0.11,19.51c-0.156,2.279-1.622,5.002-3.358,6.54
		c-5.438,4.812-12.396,6.446-19.282,8.083c-14.163,3.367-28.229,2.598-42.29-0.71c-20.417-4.8-34.961-16.929-44.754-35.236
		c-7.918-14.802-12.353-30.643-12.024-47.311c0.707-35.987,26.993-71.854,63.708-78.488c36.041-6.511,67.912,6.158,86.758,35.034
		c8.795,13.475,13.121,28.188,13.081,44.266C173.404,703.792,173.448,727.469,173.448,751.142z"/>
	<path fill="#FFFFFF" d="M373.292,616.029c0.002-28.245,0.079-56.49-0.089-84.732c-0.021-3.854,1.342-6.398,4.427-8.177
		c5.179-2.984,10.27-5.849,16.646-2.629c5.542,2.799,7.75,5.609,7.75,11.801c0.002,51.228-0.035,102.455,0.023,153.683
		c0.021,19.852,13.498,41.299,31.112,47.73c26.068,9.52,51.797,2.709,67.04-23.678c12.247-21.199,9.698-48.269-3.441-65.85
		c-7.811-10.448-18.956-15.276-31.321-17.825c-8.343-1.721-16.813-2.677-25.048-0.064c-7.832,2.484-15.405,5.787-23.088,8.738
		c-1.231,0.473-2.444,0.994-3.666,1.492c-0.353-1.257-0.988-2.51-1.007-3.772c-0.102-6.505,0.083-13.017-0.095-19.52
		c-0.085-3.124,1.301-4.867,3.936-6.115c9.357-4.431,19.201-7.249,29.518-7.659c12.431-0.494,24.872-0.836,36.949,3.489
		c13.351,4.781,24.57,12.354,33.67,23.261c7.523,9.02,13.876,18.723,17,30.076c4.47,16.243,3.616,32.6-0.491,48.824
		c-5.87,23.186-19.377,40.576-40.774,51.124c-7.154,3.526-15.438,4.876-23.302,6.824c-13.563,3.358-27.002,1.063-40.25-1.938
		c-15.223-3.449-27.522-11.956-37.622-23.673c-7.852-9.106-13.667-19.42-17.144-30.958c-0.624-2.069-0.699-4.361-0.702-6.552
		C373.275,671.965,373.291,643.996,373.292,616.029z"/>
	<path fill="#FFFFFF" d="M276.291,599.126c33.196-2.38,67.007,23.116,76.878,53.728c12.67,39.295-0.424,79.781-36.76,101.42
		c-8.749,5.211-18.509,7.915-28.686,8.904c-5.77,0.561-11.538,1.572-17.311,1.594c-32.365,0.114-62.07-19.86-74.447-49.78
		c-17.273-41.756,2.263-90.79,43.558-108.941C251.336,600.855,263.829,598.671,276.291,599.126z M327.312,681.542
		c0.676-8.428-0.641-17.68-5.127-26.221c-7.593-14.453-18.984-23.863-35.318-27.472c-14.346-3.169-27.983-2.033-40.288,5.794
		c-22.866,14.543-31.846,39.456-23.618,67.453c9.602,32.671,46.591,47.854,76.106,31.211
		C317.978,721.644,328.794,705.407,327.312,681.542z"/>
	<path fill="#FFFFFF" d="M556.33,660.463c-0.001-15.508,0.304-31.023-0.14-46.519c-0.196-6.859,3.024-10.559,8.58-13.105
		c5.054-2.317,10.134-2.373,15.14,0.297c4.212,2.246,5.97,5.636,5.946,10.479c-0.122,27.553-0.203,55.106,0.008,82.658
		c0.089,11.65,2.164,22.804,10.579,31.894c5.563,6.007,12.24,9.361,20.311,9.882c4.926,0.315,9.89,0.517,14.813,0.301
		c13.807-0.609,30.212-13.634,30.991-30.06c0.288-6.061,1.243-12.104,1.28-18.159c0.148-24.922,0.061-49.846,0.062-74.768
		c0-7.109,4.364-12.806,11.573-13.633c3.929-0.451,8.254,0.227,12.039,1.482c4.254,1.41,6.136,5.051,6.121,9.81
		c-0.097,31.706,0.45,63.424-0.225,95.116c-0.472,22.146-12.146,38.345-30.976,49.276c-14.644,8.502-30.634,10.051-47.303,8.242
		c-11.334-1.229-22.195-3.56-31.651-10.042c-17.329-11.877-26.793-28.326-27.107-49.54
		C556.158,689.542,556.332,675.001,556.33,660.463z"/>
	<path fill="#FFFFFF" d="M327.312,681.542c1.481,23.865-9.333,40.103-28.245,50.767c-29.516,16.645-66.505,1.46-76.106-31.211
		c-8.228-27.997,0.752-52.91,23.618-67.453c12.305-7.827,25.942-8.963,40.288-5.794c16.334,3.607,27.726,13.019,35.318,27.472
		C326.671,663.862,327.987,673.114,327.312,681.542z"/>
</g>
</svg>
